<svg width="1650" height="1022" viewBox="0 0 1650 1022" fill="none" xmlns="http://www.w3.org/2000/svg">
<path d="M830.69 981.41C796.26 959.18 773.8 923.26 773.8 882.62V768.75H773.71V694.48C773.66 622.2 729.14 615.27 694.14 620.99C685.95 622.33 677.93 624.58 670.12 627.38C655.54 632.6 641.58 637.84 628.63 642.89C617.07 646.84 605.52 650.79 593.96 654.75C568.34 663.51 542.73 672.27 517.11 681.03C491.01 689.96 464.9 698.88 438.8 707.81C416.18 715.55 394.09 723.2 370.49 727.46C369.52 727.6 368.61 727.68 367.65 727.81V727.29C365.31 727.89 362.88 728.26 360.48 728.68C327.95 731.52 294.68 722.88 276.87 693.56C259.45 664.88 262.52 631.52 262.52 599.43V427.8C262.52 410.71 262.52 393.62 262.52 376.53C262.52 375.56 262.55 374.59 262.52 373.63C261.6 341.55 267.12 318.75 276.34 302.58C291.98 281.25 317.01 267.25 345.51 267.25C353.18 267.25 360.57 267.65 367.65 269.54C375.66 272.31 383.67 275.08 391.68 277.85C411.35 284.65 431.02 291.45 450.69 298.25C475.53 306.84 500.37 315.42 525.21 324.01C548.73 332.14 572.25 340.27 595.77 348.4C611.48 353.83 627.19 359.26 642.9 364.69C657.29 369.66 671.45 375.27 685.82 380.27C700.29 385.31 713.92 389.16 729.32 385.68C753.31 380.26 773.66 361.28 773.69 312.44V311.89C773.66 311.4 773.65 310.91 773.64 310.41C773.62 309.69 773.6 308.98 773.58 308.26L773.51 305.69C773.49 304.78 773.46 303.87 773.44 302.96C773.42 302.05 773.39 301.2 773.37 300.32C773.35 299.55 773.33 298.79 773.31 298.02L773.27 296.32C773.26 295.82 773.25 295.32 773.25 294.82V133.02C773.25 108.27 781.89 84.17 796.72 64.45C812.11 43.98 832 32.37 854.08 20.54C866.83 13.71 879.9 7.41004 892.89 1.04004H257.34V1.23004C115.3 3.97004 1 119.94 1 262.7V760.21C1 904.71 118.09 1017.68 262.53 1017.68H901.44C841.82 989.16 830.69 981.38 830.68 981.4L830.69 981.41Z" fill="white" stroke="#020817" stroke-width="0.5" stroke-miterlimit="10"/>
<path d="M1403.16 1.76L1377.91 1.05V1H1312.49C1312.49 1 1366.71 7.05 1376.5 52.62L1377.89 62.94V147.81C1377.74 155.44 1376.72 172.87 1370.81 190.74V190.76C1366.56 201.36 1360.26 213.49 1351.64 222.19C1343.01 230.48 1333.02 232.96 1326.5 233.57C1325.76 233.56 1325.07 233.69 1324.32 233.63L1083.95 233.75C1083.95 233.75 1053.61 231.53 1036.64 250.55C1036.64 250.55 1036.61 250.58 1036.59 250.6C1030.18 258.27 1023.87 272.17 1024.71 283.26C1024.57 292.92 1024.82 300.35 1024.82 300.35V372.81C1024.82 399.53 1046.58 421.19 1073.42 421.19H1320.26C1336.26 422.23 1366.35 429.2 1365.13 467.34L1365.17 561.06C1365.17 561.06 1370.65 597.31 1318.82 599.31H1073.41C1046.57 599.31 1024.82 623.99 1024.82 650.71V725.43C1024.82 750.57 1041.36 768.93 1066.44 773.02C1068.35 773.61 1070.58 773.45 1072.45 773.56C1075.75 773.74 1089.52 774.11 1093.82 774.15L1306.97 780.06C1325.93 780.21 1344.66 786.37 1358.94 798.85C1369.31 807.9 1378.41 820.74 1379.95 838.38V948.12C1379.95 961.02 1377.3 973.92 1371.18 985.27C1363.77 999.01 1350.24 1014.25 1325.92 1020.7C1324.75 1020.89 1323.96 1020.99 1323.96 1020.99H1389.38V1020.97C1533.18 1020.77 1649.71 904.68 1649.71 761.48V260.58C1649.71 122.01 1540.51 9.13 1403.15 1.78L1403.16 1.76Z" fill="white" stroke="#020817" stroke-width="0.5" stroke-miterlimit="10"/>
</svg>
