<svg width="137" height="27" viewBox="0 0 137 27" fill="none" xmlns="http://www.w3.org/2000/svg">
<path d="M53.6887 20.5507C48.7533 24.1041 41.5997 26 35.4406 26C26.8045 26 19.0298 22.8799 13.1479 17.6907C12.6858 17.2827 13.0999 16.7265 13.6545 17.0444C20.0022 20.6518 27.8508 22.8223 35.9581 22.8223C41.4258 22.8223 47.4409 21.7172 52.9715 19.4241C53.807 19.0774 54.5057 19.9584 53.6887 20.5507Z" fill="white" stroke="white" stroke-width="0.835493"/>
<path d="M55.7407 18.2578C55.1122 17.4706 51.5705 17.8858 49.9807 18.0701C49.4965 18.1279 49.4226 17.7162 49.8587 17.4201C52.6796 15.4808 57.3081 16.0405 57.8479 16.6905C58.3876 17.3442 57.7074 21.8762 55.0567 24.0393C54.65 24.3715 54.2618 24.1945 54.443 23.7541C55.0383 22.3023 56.3729 19.0486 55.7407 18.2578Z" fill="white" stroke="white" stroke-width="0.835493"/>
<path d="M50.0919 3.73004V1.84504C50.0919 1.55978 50.3137 1.36846 50.5798 1.36846H59.2197C59.4969 1.36846 59.7188 1.5635 59.7188 1.84504V3.45924C59.7151 3.73004 59.4821 4.08403 59.0681 4.64368L54.5911 10.8874C56.2547 10.8475 58.0108 11.0896 59.5191 11.9201C59.8592 12.1079 59.9516 12.3824 59.9775 12.6532V14.6646C59.9775 14.939 59.667 15.2605 59.3417 15.0943C56.6834 13.733 53.1529 13.5849 50.214 15.1087C49.9145 15.2677 49.6001 14.9499 49.6001 14.6754V12.7652C49.6001 12.4582 49.6038 11.9346 49.9181 11.4688L55.1049 4.20304H50.5909C50.3135 4.20304 50.0919 4.01172 50.0919 3.73004ZM18.5753 15.4916H15.9467C15.6954 15.4736 15.4957 15.2893 15.4772 15.0547V1.87755C15.4772 1.61391 15.7029 1.40455 15.9838 1.40455H18.4349C18.69 1.41529 18.8933 1.60675 18.9118 1.84504V3.5675H18.9599C19.5994 1.90276 20.8009 1.12631 22.4202 1.12631C24.0653 1.12631 25.0931 1.90276 25.8325 3.5675C26.4683 1.90276 27.9138 1.12631 29.4629 1.12631C30.5645 1.12631 31.7697 1.57053 32.5054 2.56708C33.3371 3.67577 33.167 5.28624 33.167 6.69823L33.1635 15.0146C33.1635 15.2783 32.9379 15.4914 32.657 15.4914H30.0322C29.7697 15.4733 29.5591 15.2674 29.5591 15.0146V8.03087C29.5591 7.47481 29.6107 6.08817 29.4852 5.5609C29.2892 4.67618 28.7013 4.42701 27.9398 4.42701C27.304 4.42701 26.6384 4.8423 26.3685 5.50676C26.0987 6.17123 26.1247 7.28335 26.1247 8.03087V15.0149C26.1247 15.2786 25.899 15.4916 25.6181 15.4916H22.9933C22.7271 15.4736 22.5202 15.2677 22.5202 15.0149L22.5165 8.03087C22.5165 6.56117 22.7643 4.39808 20.8973 4.39808C19.0082 4.39808 19.0821 6.50704 19.0821 8.03087V15.0149C19.0817 15.2786 18.8562 15.4916 18.5753 15.4916ZM67.1568 1.12645C71.0572 1.12645 73.1681 4.39808 73.1681 8.55829C73.1681 12.5774 70.8353 15.7662 67.1568 15.7662C63.3269 15.7662 61.2417 12.4945 61.2417 8.41752C61.2417 4.31502 63.3528 1.12645 67.1568 1.12645ZM67.179 3.81668C65.2419 3.81668 65.1198 6.39506 65.1198 8.00195C65.1198 9.61256 65.0938 13.0503 67.1567 13.0503C69.1936 13.0503 69.2898 10.277 69.2898 8.58694C69.2898 7.47467 69.2417 6.14575 68.8981 5.09133C68.6024 4.17411 68.0145 3.81668 67.179 3.81668ZM78.2255 15.4916H75.608C75.3455 15.4736 75.1349 15.2678 75.1349 15.0149L75.1312 1.8343C75.1533 1.59243 75.3715 1.40455 75.6377 1.40455H78.074C78.3032 1.41529 78.4917 1.56708 78.5435 1.77287V3.78775H78.5915C79.3272 1.98582 80.3586 1.12631 82.1739 1.12631C83.3532 1.12631 84.503 1.5416 85.2423 2.67907C85.9299 3.73348 85.9299 5.50663 85.9299 6.78128V15.0761C85.9005 15.3072 85.6823 15.4915 85.4234 15.4915H82.7876C82.5473 15.4735 82.3477 15.3 82.3218 15.0761V7.91889C82.3218 6.47812 82.4917 4.36916 80.6766 4.36916C80.0371 4.36916 79.4492 4.78803 79.1572 5.42357C78.7876 6.2288 78.7395 7.0306 78.7395 7.91889V15.0148C78.7358 15.2786 78.5065 15.4916 78.2255 15.4916ZM87.5751 14.4443C87.5751 13.7798 88.1556 13.2454 88.8691 13.2454C89.5826 13.2454 90.163 13.7797 90.163 14.4443C90.163 15.1051 89.5826 15.6467 88.8691 15.6467C88.1556 15.6467 87.5751 15.1051 87.5751 14.4443ZM115.424 15.4951C115.151 15.4843 114.936 15.2786 114.936 15.0185V1.84132C114.951 1.60661 115.154 1.42245 115.406 1.40799H116.371C116.637 1.40799 116.851 1.59573 116.873 1.84132V3.76241C117.561 2.23857 118.84 1.04683 120.456 1.04683H120.652C122.367 1.04683 123.62 2.28182 124.086 4.07659C124.814 2.30345 126.182 1.04683 127.986 1.04683H128.186C129.461 1.04683 130.689 1.84849 131.325 3.06915C131.938 4.23555 131.916 5.78831 131.916 7.09203L131.912 15.0185C131.916 15.2713 131.705 15.477 131.443 15.4951H130.289C130.038 15.4843 129.835 15.3111 129.801 15.0835V7.09203C129.801 6.14946 129.85 5.14919 129.458 4.28982C129.058 3.41227 128.293 2.86337 127.472 2.82356C126.556 2.86695 125.713 3.52053 125.165 4.40166C124.456 5.53913 124.482 6.56476 124.482 7.89368V15.0907C124.448 15.3072 124.252 15.477 124.012 15.4951H122.866C122.593 15.4843 122.374 15.2786 122.374 15.0185L122.367 6.56475C122.367 5.78831 122.319 4.87467 121.953 4.1777C121.528 3.3832 120.766 2.86323 119.968 2.82342C119.139 2.87039 118.304 3.48789 117.808 4.20662C117.169 5.12384 117.047 6.25773 117.047 7.42412V15.0184C117.047 15.2711 116.836 15.4769 116.574 15.4949L115.424 15.4951ZM107.505 15.7696C103.775 15.7696 102.104 12.0538 102.104 8.33776C102.104 4.43059 104.067 1.04683 107.823 1.04683H108.023C111.675 1.04683 113.495 4.65084 113.495 8.36669C113.495 12.3028 111.48 15.7696 107.701 15.7696H107.505ZM107.779 13.9675C109.006 13.928 109.975 13.1841 110.548 11.9453C111.062 10.8331 111.162 9.55829 111.162 8.33776C111.162 7.00897 111.014 5.62219 110.374 4.48472C109.801 3.49161 108.818 2.85965 107.775 2.82356C106.614 2.86337 105.575 3.63251 105.054 4.81695C104.585 5.84258 104.441 7.20401 104.441 8.3379C104.441 9.6127 104.611 11.086 105.15 12.1947C105.675 13.2454 106.685 13.9279 107.779 13.9675ZM95.8489 13.9098C97.5237 13.8594 98.4035 12.5485 98.7659 10.8511C98.8398 10.638 99.0062 10.4755 99.2503 10.4755L100.356 10.4719C100.618 10.4828 100.858 10.6779 100.836 10.9161C100.326 13.8087 98.5404 15.7695 95.9969 15.7695H95.7973C92.093 15.7695 90.4958 12.1365 90.4958 8.44961C90.4958 4.79147 92.1151 1.04669 95.8194 1.04669H96.0191C98.5922 1.04669 100.426 2.98224 100.825 5.87481C100.825 6.09148 100.618 6.27935 100.374 6.30456L99.217 6.2901C98.973 6.25759 98.8141 6.05539 98.777 5.82798C98.4998 4.21378 97.5497 2.92824 95.9673 2.87769C93.4495 2.95731 92.7323 5.98335 92.7323 8.31256C92.7323 10.5551 93.3312 13.8303 95.8489 13.9098ZM47.8847 13.0757C47.4041 12.4257 46.8939 11.8984 46.8939 10.6959V6.69478C46.8939 5.00111 47.0159 3.44477 45.7368 2.27838C44.7275 1.33223 43.0565 1 41.7774 1C39.2782 1 36.4833 1.90992 35.8992 4.92894C35.8363 5.25029 36.0766 5.41999 36.2909 5.46696L38.8381 5.73417C39.0784 5.72329 39.2522 5.49588 39.2965 5.26475C39.5147 4.2248 40.4056 3.72287 41.4075 3.72287C41.951 3.72287 42.5647 3.91792 42.8826 4.39092C43.2524 4.91819 43.2043 5.64037 43.2043 6.25057V6.5828C41.6811 6.7525 39.6884 6.8609 38.2613 7.47481C36.6126 8.1682 35.4591 9.58735 35.4591 11.671C35.4591 14.3397 37.1781 15.6721 39.3927 15.6721C41.2596 15.6721 42.2838 15.2425 43.7256 13.805C44.2025 14.4803 44.3615 14.809 45.2339 15.5168C45.4299 15.618 45.6812 15.6071 45.8549 15.4556L45.8586 15.4627C46.3836 15.0076 47.3373 14.1952 47.8734 13.7583C48.088 13.5849 48.0511 13.3068 47.8847 13.0757ZM42.7126 11.9201C42.2948 12.6425 41.6293 13.0865 40.8938 13.0865C39.8845 13.0865 39.2928 12.3354 39.2928 11.2268C39.2928 9.03845 41.3003 8.64121 43.2043 8.64121V9.19727C43.2044 10.1975 43.2302 11.0318 42.7126 11.9201ZM13.4253 13.0757C12.9448 12.4257 12.4347 11.8984 12.4347 10.6959V6.69478C12.4347 5.00111 12.5567 3.44477 11.2775 2.27838C10.2683 1.33223 8.59714 1 7.31814 1C4.81895 1 2.02771 1.90992 1.43996 4.92894C1.38074 5.25029 1.61736 5.41999 1.8317 5.46696L4.38265 5.73417C4.61927 5.72329 4.793 5.49588 4.83742 5.26475C5.05557 4.2248 5.95031 3.72287 6.95207 3.72287C7.49187 3.72287 8.10557 3.91792 8.42722 4.39092C8.79315 4.91819 8.74507 5.64037 8.74507 6.25057V6.5828C7.22197 6.7525 5.2293 6.8609 3.80224 7.47481C2.15716 8.1682 1 9.58735 1 11.671C1 14.3397 2.72277 15.6721 4.93359 15.6721C6.80429 15.6721 7.82467 15.2425 9.26654 13.805C9.74711 14.4803 9.90237 14.809 10.7748 15.5168C10.9708 15.618 11.2221 15.6071 11.3959 15.4556L11.4033 15.4627C11.9283 15.0076 12.882 14.1952 13.4181 13.7583C13.6325 13.5849 13.5954 13.3068 13.4253 13.0757ZM8.25335 11.9201C7.83553 12.6425 7.17389 13.0865 6.43455 13.0865C5.42531 13.0865 4.83742 12.3354 4.83742 11.2268C4.83742 9.03845 6.84476 8.64121 8.74507 8.64121V9.19727C8.74507 10.1975 8.77087 11.0318 8.25335 11.9201ZM134.645 1.5489C135.277 1.5489 135.802 2.04725 135.802 2.67563C135.802 3.28954 135.284 3.80593 134.645 3.80593C134.009 3.80593 133.491 3.30042 133.491 2.67563C133.491 2.03995 134.016 1.5489 134.645 1.5489ZM134.648 1.33223C133.909 1.33223 133.269 1.91722 133.269 2.67921C133.269 3.42673 133.898 4.02246 134.648 4.02246C135.403 4.02246 136.024 3.41943 136.024 2.67921C136.024 1.91722 135.392 1.33223 134.648 1.33223ZM134.131 3.43389H134.427V2.82728H134.7C134.807 2.82728 134.837 2.87067 134.859 2.95731C134.859 2.97893 134.911 3.36185 134.915 3.43389H135.244C135.203 3.36172 135.181 3.15579 135.166 3.03306C135.136 2.8416 135.122 2.70799 134.911 2.69367C135.018 2.65758 135.203 2.59973 135.203 2.32163C135.203 1.92438 134.844 1.92438 134.66 1.92438H134.131V3.43389ZM134.419 2.16639H134.667C134.748 2.16639 134.896 2.16639 134.896 2.37218C134.896 2.45166 134.859 2.58527 134.659 2.58527H134.419V2.16639Z" fill="white" stroke="white" stroke-width="0.835493"/>
</svg>
