<svg width="174" height="55" viewBox="0 0 174 55" fill="none" xmlns="http://www.w3.org/2000/svg">
<path d="M41.7159 37.2763C41.7676 37.2826 41.7791 37.2826 41.825 37.2952C42.652 37.4154 43.4675 37.5799 44.0877 37.8898C44.6677 38.1682 45.0008 38.5224 45.3109 39.1549C45.7818 40.1164 45.8106 41.4574 45.3856 42.4758C45.0697 43.2349 44.3748 43.8674 43.7374 44.2027C43.077 44.5569 42.428 44.7214 41.6814 44.8163C40.3778 44.9744 38.9708 44.6771 37.7935 44.0509C37.0986 43.6777 36.2487 43.0325 35.8237 42.2102C35.5079 41.6029 35.5194 40.8122 35.8984 40.2366C36.5071 39.3194 37.8108 39.117 38.7985 39.1549C39.5508 39.1866 40.8947 39.4396 41.6068 39.7179C41.8078 39.8001 42.5314 40.1101 42.6577 40.2556C42.7439 40.3568 42.8013 40.5023 42.7668 40.6351C42.606 41.1854 41.3943 41.4701 41.0497 41.527C40.1136 41.6851 39.6312 41.293 38.5688 40.8312C38.3161 40.7237 37.9601 40.5972 37.6959 40.5718C37.2135 40.5212 36.6335 40.6667 36.5416 41.2487C36.4956 41.546 36.8115 41.8243 37.0584 41.9445C37.627 42.2165 38.0922 42.3114 38.6492 42.3177C40.3089 42.3493 42.1696 42.0457 43.5249 40.9893C43.7087 40.8438 43.8924 40.6288 43.8982 40.3631C43.9039 39.8191 43.0425 39.4839 43.0425 39.4839C42.1236 39.0727 40.4352 38.864 39.5681 38.7881C38.655 38.6995 37.2192 38.573 36.8747 38.5161C36.5186 38.4591 36.1338 38.3769 35.8237 38.2251C35.5136 38.0733 35.215 37.7317 35.1231 37.3522C34.968 36.6627 35.169 35.8214 35.5136 35.2774C36.421 33.8415 38.5401 33.2975 40.1251 33.0824C41.6585 32.8737 44.1394 32.8737 45.644 33.7593C45.8795 33.8984 46.0001 34.0249 45.9484 34.2969C45.8508 34.8093 45.5004 35.1382 45.0755 35.29C44.6275 35.4419 43.7029 35.5051 43.3009 35.5304C41.4862 35.6443 39.2924 35.5873 37.5638 36.106C37.4317 36.1503 37.1905 36.2199 37.1216 36.3148C36.846 36.6374 37.6212 36.7323 37.7878 36.7639C37.8395 36.7765 37.8452 36.7829 37.9026 36.7829L41.7159 37.2763ZM30.9078 28.351C30.9078 28.351 31.2007 27.8639 31.4534 27.4907C31.9071 26.8139 32.7226 25.8777 33.3313 25.3021C33.5208 25.1249 33.7391 24.9289 33.7391 24.9289C33.7391 24.9289 33.3945 24.9668 33.1992 25.0111C32.7341 25.1123 32.0507 25.612 31.7118 25.9346C31.149 26.466 30.5288 27.3325 30.8045 28.0979C30.8447 28.2118 30.9078 28.351 30.9078 28.351ZM34.0434 29.2745C34.9336 29.2049 35.7663 28.9266 36.5416 28.4522C37.3054 27.9841 38.4195 27.0732 38.3046 25.9979C38.2702 25.6436 38.0634 25.3843 37.805 25.2641C37.4662 25.0996 37.2882 25.1249 36.8574 25.2641C36.5416 25.3653 36.398 25.4286 36.0994 25.6183C35.2265 26.175 33.9918 27.3705 33.3198 28.3257C33.159 28.547 33.004 28.8001 32.8834 28.9709C32.803 29.0784 32.7456 29.1733 32.7513 29.2049C32.7743 29.3124 33.6931 29.2998 34.0434 29.2745ZM31.775 31.1089C31.6831 31.2164 31.5855 31.4758 31.4821 31.6655C31.4304 31.7667 31.3328 31.8932 31.2639 31.9438C31.0342 32.1273 30.8389 32.1399 30.615 31.9185C30.2991 31.6149 30.1211 31.1405 30.1038 30.6787C30.0981 30.4763 30.1268 30.2613 30.0924 30.0905C30.0349 29.8058 29.7765 29.5148 29.6387 29.2365C29.4721 28.9202 29.34 28.3573 29.3228 27.9967C29.2654 26.8645 29.8052 25.8271 30.5116 25.0048C31.218 24.1761 32.1426 23.4866 33.1476 23.0185C34.0951 22.5758 35.4906 22.2785 36.5358 22.677C36.8747 22.8035 37.3456 23.1261 37.5868 23.455C37.6385 23.5246 37.6844 23.6005 37.7304 23.6384C37.7763 23.6701 37.9026 23.6827 37.9945 23.7017C38.3276 23.765 38.8043 24.0433 38.9995 24.2267C39.3958 24.6063 39.614 24.9605 39.7116 25.4792C39.9126 26.5229 39.3671 27.6678 38.7411 28.3636C37.6787 29.5591 36.6277 30.4004 35.2667 30.9887C34.6694 31.248 33.7391 31.4884 33.0614 31.4188C32.8489 31.3999 32.6307 31.3366 32.4297 31.3239C32.3263 31.3113 31.9416 31.2038 31.9014 31.1721C31.8497 31.1342 31.7865 31.0962 31.775 31.1089ZM32.9868 33.424C33.027 33.4303 33.0959 33.4556 33.1476 33.4746C33.63 33.6707 33.8252 34.1641 33.9401 34.6954C34.21 35.9352 34.3248 38.6805 34.3708 39.7559C34.411 40.5655 34.4225 41.3562 34.4569 42.1532C34.4856 42.8301 34.5316 43.7283 34.4052 44.3608C34.3593 44.5886 34.2215 44.8542 34.0205 44.9871C33.7965 45.1452 33.2796 45.1578 32.9925 45.0946C32.2976 44.9365 32.0679 44.4431 31.9645 43.684C31.7291 41.8623 31.8439 38.301 31.9818 36.7955C32.0277 36.2958 32.1942 34.7081 32.4354 34.0439C32.5216 33.8162 32.6881 33.3608 32.9868 33.424ZM11.7382 36.4476C11.7382 36.4476 10.6987 36.5298 9.98662 36.6184C9.07351 36.7259 7.36214 37.0485 6.38011 37.4407C6.08148 37.5546 5.48422 37.8329 5.42679 38.1682C5.37511 38.5161 5.57037 38.7881 5.78859 39.0727C5.91494 39.2372 6.62705 39.9899 6.82805 40.1733C7.66651 40.9451 9.36639 42.1343 10.6183 42.7099C11.049 42.906 11.7612 43.1843 11.7612 43.1843C11.7612 43.1843 11.7095 40.9514 11.721 38.7564C11.7152 37.5925 11.7382 36.4476 11.7382 36.4476ZM30.8045 37.3332C30.8619 37.9341 30.7241 39.0664 30.7011 39.2119C30.6552 39.5598 30.4197 40.3505 30.3852 40.4453C30.1957 40.9324 30.0062 41.3246 29.8052 41.7168C29.4664 42.3936 28.6509 43.4626 28.1742 43.9244C26.3882 45.6259 23.6144 46.6001 21.2369 46.9163C19.6231 47.1314 17.7739 47.0998 16.0626 46.7519C15.471 46.6317 14.5981 46.4103 14.5981 46.4103C14.5981 46.4103 14.6039 46.7962 14.5694 47.0681C14.5522 47.1883 14.4718 47.5173 14.4258 47.6248C14.3052 47.9094 14.0985 48.0549 13.7999 48.1119C13.4381 48.1814 13.059 48.2067 12.7317 48.0549C12.1861 47.8019 11.9909 47.2453 11.899 46.6001C11.8243 46.0877 11.7439 45.1895 11.7439 45.1895C11.7439 45.1895 11.3362 44.9807 10.9974 44.791C9.95791 44.228 8.97014 43.5448 8.10297 42.8364C7.86177 42.6403 6.83379 41.6915 6.60408 41.4511C5.96662 40.7869 5.39234 40.1227 4.95588 39.2688C4.61705 38.6173 4.51942 38.029 4.77785 37.3269C5.13391 36.3464 6.40882 35.6063 7.28748 35.1825C7.93068 34.8726 9.92345 34.1515 10.7504 34.0186C11.1409 33.9554 11.7497 33.8352 11.7899 33.8099C11.8071 33.7972 11.8186 33.7846 11.8301 33.7719C11.8473 33.7403 11.8818 32.7725 11.8703 32.4183C11.8588 32.0704 12.1 29.7742 12.1804 29.2871C12.2263 29.0278 12.4044 28.0157 12.5881 27.75C12.7087 27.5729 12.9212 27.5856 13.0935 27.7058C14.0411 28.3573 14.334 30.6155 14.4029 31.7604C14.4431 32.4625 14.466 33.5126 14.466 33.5126C14.466 33.5126 15.5572 33.4809 16.2291 33.4999C16.878 33.5189 17.6016 33.6328 18.2736 33.7466C19.1407 33.8984 20.8291 34.3033 21.7939 34.8473C22.5922 35.2964 23.3388 36.0428 23.58 36.8398C23.8039 37.5736 23.7695 38.0733 23.4306 38.7311C23.0459 39.4775 22.3223 40.0279 21.5814 40.0721C21.3632 40.0848 20.5362 39.9646 20.2778 39.7432C20.1802 39.661 20.1859 39.5028 20.2548 39.3953C20.2836 39.351 20.6683 39.1296 20.898 38.9968C21.0129 38.9272 21.1105 38.8513 21.1967 38.7628C21.3862 38.5793 21.5585 38.3769 21.5355 38.1365C21.5125 37.8329 21.2196 37.6431 20.9325 37.5166C19.6116 36.941 16.9699 36.4603 15.695 36.3717C15.2011 36.3401 14.489 36.3148 14.489 36.3148L14.6383 44.0699C14.6383 44.0699 15.2241 44.19 15.6893 44.2786C15.9534 44.3229 17.079 44.4367 17.3777 44.4431C19.6518 44.5126 22.1959 44.2849 24.2806 43.1969C25.2052 42.7225 26.0436 42.1343 26.6811 41.3309C27.5138 40.2745 27.956 38.826 27.8412 37.3079C27.7148 35.6569 26.6581 33.6897 25.8139 32.4878C23.58 29.3314 19.7552 26.7316 16.3956 25.2072C12.9614 23.6511 9.56165 22.7592 5.92068 22.6074C4.97885 22.5694 2.92865 22.62 1.89494 22.9363C1.74562 22.9869 1.59631 23.0375 1.46422 23.0755C1.35511 23.1008 1.18282 23.183 1.13688 23.2273C1.10817 23.2463 1.0852 23.2779 1.0852 23.2779C1.0852 23.2779 1.14837 23.3158 1.21154 23.3475C1.32065 23.4044 1.78008 23.4297 2.02128 23.4803C2.23377 23.5246 2.45774 23.6448 2.54388 23.8219C2.63002 23.9863 2.64151 24.1129 2.53814 24.252C2.30268 24.5683 1.41828 24.5114 1.02777 24.4481C0.625767 24.3722 0.120396 24.2394 0.0285104 23.8472C-0.074861 23.3918 0.120396 22.949 0.332882 22.5315C0.763596 21.7028 1.37234 21.2727 2.26822 21.007C3.54314 20.6212 5.14539 20.3555 6.35139 20.3049C9.07351 20.191 11.652 20.7161 14.2823 21.6016C15.7984 22.095 17.7739 22.9363 19.2211 23.708C20.2606 24.2583 21.8916 25.2704 22.8104 25.9346C23.1033 26.1434 24.7917 27.516 25.0559 27.7627C25.6014 28.2561 26.325 28.9709 26.8419 29.5402C27.8469 30.6408 29.0988 32.3234 29.7076 33.6581C29.8626 33.9743 29.9775 34.2906 30.1613 34.6638C30.2244 34.7903 30.5058 35.5494 30.5518 35.7708C30.5977 35.9922 30.6666 36.3085 30.6781 36.3211C30.6839 36.4286 30.8102 37.0802 30.8045 37.3332ZM65.0147 35.619C63.7398 35.9416 60.3917 36.1187 60.3917 36.1187L59.9724 37.5799C59.9724 37.5799 61.6436 37.4217 62.8668 37.5609C62.8668 37.5609 63.2631 37.5103 63.309 38.0543C63.3263 38.5603 63.2688 39.1043 63.2688 39.1043C63.2688 39.1043 63.2401 39.4333 62.8209 39.5155C62.3615 39.5977 59.2086 39.7369 59.2086 39.7369L58.6975 41.6409C58.6975 41.6409 58.508 42.0773 58.933 41.9508C59.3292 41.8306 62.6256 41.1538 63.0621 41.2487C63.5215 41.3752 64.0326 42.052 63.8833 42.6719C63.7053 43.4373 60.4146 45.7524 58.4104 45.588C58.4104 45.588 57.3594 45.6639 56.4636 44.0952C55.6308 42.6023 56.7737 39.7748 56.7737 39.7748C56.7737 39.7748 56.2511 38.4528 56.6301 38.01C56.6301 38.01 56.8541 37.7823 57.5145 37.7317L58.3242 35.891C58.3242 35.891 57.4054 35.9605 56.8598 35.2141C56.3487 34.5057 56.3028 34.1831 56.6933 33.987C57.1125 33.7593 60.943 32.9939 63.579 33.0888C63.579 33.0888 64.4921 32.9939 65.2903 34.7397C65.2903 34.7397 65.6636 35.4482 65.0147 35.619ZM55.0968 42.6909C54.7579 43.5701 53.8678 44.5 52.7594 43.918C51.6625 43.3361 49.9224 39.408 49.9224 39.408C49.9224 39.408 49.262 37.9468 49.1357 37.9847C49.1357 37.9847 48.9921 37.7001 48.906 39.3004C48.8141 40.8944 48.9232 44.0003 48.3489 44.4937C47.8033 44.9807 47.1372 44.791 46.7926 44.2153C46.4767 43.6461 46.3504 42.305 46.5169 39.9456C46.7179 37.5862 47.2118 35.0687 47.855 34.2906C48.4925 33.5189 48.9978 34.0819 49.1988 34.2843C49.1988 34.2843 50.0488 35.1319 51.45 37.6242L51.697 38.0859C51.697 38.0859 52.9719 40.439 53.104 40.4327C53.104 40.4327 53.2074 40.5402 53.2992 40.4643C53.4313 40.42 53.3796 39.6673 53.3796 39.6673C53.3796 39.6673 53.1155 37.0991 51.9497 32.7598C51.9497 32.7598 51.7716 32.2222 51.8922 31.7098C52.0128 31.1974 52.478 31.4378 52.478 31.4378C52.478 31.4378 54.2755 32.4372 55.1542 35.6632C56.0271 38.8956 55.4413 41.8117 55.0968 42.6909ZM74.4846 40.7616C73.6634 42.3367 71.349 45.6386 68.2766 44.8542C67.2601 47.5679 66.4102 50.3131 65.9163 54.4184C65.9163 54.4184 65.8072 55.2154 65.2099 54.9434C64.6127 54.7094 63.6306 53.6214 63.4296 52.1096C63.2172 50.1234 64.0211 46.7645 65.6579 42.9186C65.1812 42.0647 64.8539 40.8375 65.1353 39.0917C65.1353 39.0917 65.5488 35.8593 68.4948 32.937C68.4948 32.937 68.8452 32.6017 69.0519 32.7029C69.2759 32.8104 69.1725 33.8605 68.9945 34.3728C68.8049 34.8852 67.4956 37.3901 67.4956 37.3901C67.4956 37.3901 66.6743 39.079 66.9041 40.42C68.4489 37.7949 71.9693 32.5131 74.1515 34.1768C74.8809 34.7524 75.2255 36.0112 75.2255 37.3648C75.2255 38.5477 74.967 39.8128 74.4846 40.7616ZM73.8472 36.6058C73.8472 36.6058 73.7266 35.562 72.802 36.7133C72.0037 37.6811 70.568 39.4965 69.4194 41.9635C70.6312 41.8117 71.8027 41.0905 72.153 40.7173C72.7216 40.1607 74.0654 38.6362 73.8472 36.6058ZM91.4261 36.3717H85.7923C85.6832 34.2653 85.4477 32.2032 85.0859 30.0905C85.0457 29.8691 84.8735 29.7109 84.6725 29.7109H83.3746C83.2597 29.7109 83.1506 29.7679 83.0817 29.8628C83.007 29.964 82.9783 30.0841 83.0013 30.2107C83.3688 32.2601 83.6043 34.278 83.7191 36.3717H78.2979C78.0452 36.3717 77.8385 36.5931 77.8385 36.8714V38.1618C77.8385 38.4401 78.0452 38.6679 78.2979 38.6679H83.7995C83.8053 38.9905 83.8053 39.2688 83.8053 39.5408C83.8053 41.4005 83.7306 42.9376 83.5583 44.6645C83.5411 44.7973 83.5871 44.9301 83.6675 45.0313C83.7479 45.1262 83.8627 45.1895 83.9833 45.1895H85.1893C85.4248 45.1895 85.62 44.9934 85.643 44.7404C85.8095 43.0008 85.8785 41.4448 85.8785 39.5471C85.8785 39.2814 85.8727 38.9968 85.8727 38.6742H91.4318C91.6845 38.6742 91.8912 38.4465 91.8912 38.1682V36.8778C91.8855 36.5994 91.6787 36.3717 91.4261 36.3717ZM16.0511 19.0714C15.9707 19.2043 15.9477 19.3624 15.9936 19.5079C16.0453 19.6597 16.1487 19.7736 16.2808 19.8242L17.2915 20.1974C17.3547 20.2163 17.4121 20.229 17.4696 20.229C17.6591 20.229 17.8314 20.1278 17.9347 19.957C21.2541 14.6056 25.7335 10.1461 30.8964 7.0656C36.2315 3.88386 42.273 2.20128 48.3776 2.20128C55.7457 2.20128 62.8553 4.59865 68.937 9.12772C74.8694 13.5493 79.4809 19.7103 82.2662 26.9467C82.3523 27.1618 82.5419 27.3072 82.7543 27.3072H83.9603C84.0982 27.3072 84.2303 27.2313 84.3107 27.0985C84.3911 26.972 84.4083 26.8075 84.3509 26.662C81.4794 18.8753 76.621 12.2335 70.3038 7.46411C63.8374 2.58081 56.2511 0 48.3776 0C35.3528 0.00632551 23.2641 7.13518 16.0511 19.0714Z" fill="white"/>
<path d="M157.899 31.498C159.748 31.498 161.305 32.257 162.292 33.8384H162.338V31.8712H164.716V45.8253H162.338V43.6556H162.292C161.402 45.3192 159.8 46.1732 157.991 46.1732C154.287 46.1732 151.266 43.099 151.266 39.0696C151.266 34.6228 154.172 31.498 157.899 31.498ZM120.082 31.498C123.58 31.498 126.876 34.5216 126.83 38.9558C126.784 42.7574 123.838 46.325 119.663 46.1795C116.12 46.0593 113.11 42.7068 113.156 38.8103C113.197 34.5975 116.223 31.498 120.082 31.498ZM139.252 31.498C141.36 31.498 143.071 33.111 143.14 35.5779H140.762C140.647 34.5722 140.125 33.889 139.137 33.889C138.224 33.889 137.65 34.5722 137.65 35.3755C137.65 36.5584 138.747 36.9126 140.004 37.3428C141.79 37.95 143.433 39.1329 143.433 41.7263C143.433 44.421 141.647 46.1858 139.177 46.1858C136.892 46.1858 134.692 44.4716 134.692 41.2456H137.07C137.185 42.9345 137.96 43.7885 139.218 43.7885C140.314 43.7885 141.049 43.0104 141.049 41.8718C141.049 40.9167 140.389 40.2841 138.902 39.7591C135.789 38.6774 135.266 37.1909 135.266 35.6032C135.272 33.1363 137.167 31.498 139.252 31.498ZM99.7124 27.1903C101.028 27.1903 102.09 28.3605 102.09 29.8091V33.364H102.136C102.888 32.1305 104.106 31.498 105.679 31.498C108.7 31.498 110.963 33.6107 110.963 37.444V45.8316H108.591V38.2473C108.591 35.249 107.54 33.889 105.432 33.889C103.348 33.889 102.09 35.5526 102.09 38.2726V45.8316H99.7124V27.1903ZM131.907 27.1903V31.8775H133.992V34.2686H131.907V45.8316C130.592 45.8316 129.529 44.6614 129.529 43.2128V34.2686H128.547V31.8775H129.529V27.1903H131.907ZM148.429 27.1903V31.8775H150.514V34.2686H148.435V45.8316C147.12 45.8316 146.057 44.6614 146.057 43.2128V34.2686H145.069V31.8775H146.051V27.1903H148.429ZM173.273 31.498V34.1926C171.217 34.2686 170.16 35.6538 170.16 38.0006V43.2128C170.16 44.6614 169.098 45.8316 167.782 45.8316V31.8775H169.999V33.1363H170.045C170.619 32.2001 171.601 31.5992 173.273 31.498ZM119.967 33.889C117.24 33.889 114.931 36.8051 115.666 40.0501C116.166 42.2514 117.986 43.8454 120.048 43.7885C122.483 43.7125 124.447 41.5745 124.447 38.8039C124.453 36.084 122.46 33.889 119.967 33.889ZM157.968 33.889C155.458 33.889 153.431 36.3876 153.661 39.3353C153.856 41.7706 155.659 43.7379 157.876 43.7821C160.391 43.8391 162.378 41.5492 162.378 38.8735C162.384 36.1599 160.598 33.889 157.968 33.889Z" fill="white"/>
</svg>
