<svg width="89" height="23" viewBox="0 0 89 23" fill="none" xmlns="http://www.w3.org/2000/svg">
<path d="M8.45678 0C9.67786 0 10.9826 0 12.2037 0C12.1912 7.00399 12.177 14.0096 12.1645 21.0136C10.8562 21.1392 9.41798 21.3115 8.11146 21.4521C6.4436 17.0623 5.41476 14.336 3.74156 9.71688C3.738 14.4096 3.73444 17.2949 3.73088 21.9893C2.51514 22.1383 1.21396 22.2939 0 22.4563C0 14.9703 0 7.48598 0 0C1.3706 0 2.22678 0 3.59738 0C5.21362 4.91367 6.82452 8.00814 8.43364 12.6825C8.44254 7.89266 8.44966 4.78982 8.45678 0ZM26.2212 3.46936C26.223 2.46018 26.1963 1.00918 26.198 0C22.7235 0 19.2934 0 15.8189 0C15.8046 6.90525 15.7904 13.8122 15.7761 20.7174C19.2489 20.4212 22.7235 20.1785 26.2016 19.9894C26.2034 18.9802 26.2052 17.5275 26.2069 16.5184C23.9446 16.6489 21.7819 16.7845 19.5266 16.9284C19.5302 15.0724 19.5337 13.536 19.5391 11.68C21.1856 11.6532 22.9264 11.6767 24.6085 11.6499C24.6103 10.6357 24.6121 9.17799 24.6138 8.16379C22.946 8.19224 21.1856 8.19558 19.5444 8.22404C19.548 6.36635 19.5515 5.3488 19.5569 3.49112C20.591 3.4794 25.3614 3.47773 26.2212 3.46936ZM28.626 3.46769C28.7915 3.46601 32.3924 3.48442 32.5206 3.48442C32.5135 9.05247 32.5046 14.1368 32.4975 19.7049C33.7203 19.6614 35.0286 19.6262 36.2515 19.5978C36.2568 14.0615 36.2622 9.0056 36.2675 3.46936C37.5598 3.46434 38.8948 3.46099 40.1853 3.45932C40.1853 2.47357 40.1871 1.00416 40.1871 0.018409C36.3779 0.018409 32.4387 0.018409 28.6295 0.018409C28.6295 1.01922 28.6277 2.46353 28.626 3.46769ZM53.0422 0C49.5677 0 46.0949 0 42.6203 0C42.6185 6.50024 42.6185 13.0005 42.6168 19.5007C43.019 19.499 43.4267 19.499 43.8361 19.499C44.6691 19.499 45.5093 19.5024 46.3298 19.5074C46.3281 16.7493 46.3281 14.2306 46.3281 11.4725C46.5328 11.4725 50.9116 11.4675 51.4028 11.4742C51.4028 10.4851 51.4011 9.01397 51.3993 8.02488C50.9347 8.01986 46.5167 8.02488 46.3263 8.02488C46.3263 6.25087 46.3245 5.25006 46.3245 3.47773C46.7321 3.47773 52.0276 3.4794 53.044 3.48275C53.044 2.49198 53.0422 0.990767 53.0422 0ZM59.2081 16.3544C59.1992 10.7344 59.2313 5.63499 59.2224 0.0150636C58.0013 0.0150636 56.6966 0.0150636 55.4755 0.0150636C55.4844 6.5789 55.4506 13.1411 55.4595 19.7049C58.7916 19.822 62.2929 19.9476 65.6215 20.1651C65.6197 19.1559 65.6179 17.7033 65.6161 16.6941C63.5086 16.5769 61.3157 16.438 59.2081 16.3544ZM68.7383 20.3777C69.9593 20.4664 71.2214 20.5618 72.4424 20.6639C72.4478 13.7854 72.4567 6.89855 72.4424 0.0167363C71.2214 0.0167363 69.9166 0.0167363 68.6955 0.0167363C68.7098 6.80316 68.724 13.5913 68.7383 20.3777ZM84.1014 10.5938C85.6839 7.06758 87.2983 3.70366 88.943 0.0167363C87.5938 0.0167363 86.2018 0.0167363 84.8508 0.0167363C83.8362 2.2945 83.1385 3.75889 82.1666 5.92787C81.2606 3.67186 80.6536 2.21082 79.7458 0.0167363C78.3965 0.0167363 77.0046 0.0167363 75.6536 0.0167363C77.1523 3.44928 78.5229 6.89018 80.0448 10.5353C78.4642 14.0364 76.8533 17.5142 75.2744 20.8714C76.5827 20.9936 77.9373 21.171 79.2438 21.3082C80.1819 19.1459 81.0345 17.4807 81.9743 15.2598C82.9124 17.6263 83.7632 19.4538 84.6995 21.8956C86.0043 22.0546 87.697 22.2839 89 22.4579C87.4194 18.4848 85.691 14.3477 84.1014 10.5938Z" fill="white"/>
</svg>
